<svg xmlns="http://www.w3.org/2000/svg" xmlns:xlink="http://www.w3.org/1999/xlink" width="800" zoomAndPan="magnify" viewBox="0 0 600 599.999999" height="800" preserveAspectRatio="xMidYMid meet" version="1.0"><path fill="#dff8fc" d="M 582.351562 300 C 582.351562 304.621094 582.238281 309.238281 582.011719 313.855469 C 581.785156 318.46875 581.445312 323.078125 580.992188 327.675781 C 580.539062 332.273438 579.976562 336.859375 579.296875 341.429688 C 578.617188 346 577.828125 350.550781 576.925781 355.085938 C 576.027344 359.617188 575.015625 364.125 573.890625 368.605469 C 572.769531 373.089844 571.535156 377.539062 570.195312 381.960938 C 568.855469 386.382812 567.40625 390.769531 565.847656 395.121094 C 564.289062 399.472656 562.628906 403.78125 560.859375 408.050781 C 559.089844 412.320312 557.21875 416.542969 555.242188 420.722656 C 553.269531 424.898438 551.191406 429.023438 549.011719 433.101562 C 546.835938 437.175781 544.558594 441.195312 542.183594 445.160156 C 539.804688 449.121094 537.335938 453.023438 534.769531 456.867188 C 532.199219 460.707031 529.539062 464.484375 526.789062 468.199219 C 524.035156 471.910156 521.191406 475.550781 518.261719 479.121094 C 515.332031 482.695312 512.3125 486.191406 509.210938 489.617188 C 506.105469 493.039062 502.921875 496.386719 499.652344 499.652344 C 496.386719 502.921875 493.039062 506.105469 489.617188 509.210938 C 486.191406 512.3125 482.695312 515.332031 479.121094 518.261719 C 475.550781 521.191406 471.910156 524.035156 468.199219 526.789062 C 464.484375 529.539062 460.707031 532.199219 456.867188 534.769531 C 453.023438 537.335938 449.121094 539.804688 445.160156 542.183594 C 441.195312 544.558594 437.175781 546.835938 433.101562 549.011719 C 429.023438 551.191406 424.898438 553.269531 420.722656 555.242188 C 416.542969 557.21875 412.320312 559.089844 408.050781 560.859375 C 403.78125 562.628906 399.472656 564.289062 395.121094 565.847656 C 390.769531 567.40625 386.382812 568.851562 381.960938 570.195312 C 377.539062 571.535156 373.089844 572.769531 368.605469 573.890625 C 364.125 575.015625 359.617188 576.027344 355.085938 576.925781 C 350.550781 577.828125 346 578.617188 341.429688 579.296875 C 336.859375 579.976562 332.273438 580.539062 327.675781 580.992188 C 323.078125 581.445312 318.46875 581.785156 313.855469 582.011719 C 309.238281 582.238281 304.621094 582.351562 300 582.351562 C 295.378906 582.351562 290.761719 582.238281 286.144531 582.011719 C 281.53125 581.785156 276.921875 581.445312 272.324219 580.992188 C 267.726562 580.539062 263.140625 579.976562 258.570312 579.296875 C 254 578.617188 249.449219 577.828125 244.914062 576.925781 C 240.382812 576.027344 235.875 575.015625 231.394531 573.890625 C 226.910156 572.769531 222.460938 571.535156 218.039062 570.195312 C 213.617188 568.855469 209.230469 567.40625 204.878906 565.847656 C 200.527344 564.289062 196.21875 562.628906 191.949219 560.859375 C 187.679688 559.089844 183.457031 557.21875 179.277344 555.242188 C 175.101562 553.269531 170.976562 551.191406 166.898438 549.011719 C 162.824219 546.835938 158.804688 544.558594 154.839844 542.183594 C 150.878906 539.804688 146.976562 537.335938 143.132812 534.769531 C 139.289062 532.199219 135.515625 529.539062 131.800781 526.789062 C 128.089844 524.035156 124.449219 521.191406 120.878906 518.261719 C 117.304688 515.332031 113.808594 512.3125 110.382812 509.210938 C 106.960938 506.105469 103.613281 502.921875 100.347656 499.652344 C 97.078125 496.386719 93.894531 493.039062 90.789062 489.617188 C 87.6875 486.191406 84.667969 482.695312 81.738281 479.121094 C 78.808594 475.550781 75.964844 471.910156 73.210938 468.199219 C 70.460938 464.484375 67.800781 460.707031 65.230469 456.867188 C 62.664062 453.023438 60.195312 449.121094 57.816406 445.160156 C 55.441406 441.195312 53.164062 437.175781 50.988281 433.101562 C 48.808594 429.023438 46.730469 424.898438 44.757812 420.722656 C 42.78125 416.542969 40.910156 412.320312 39.140625 408.050781 C 37.371094 403.78125 35.710938 399.472656 34.152344 395.121094 C 32.59375 390.769531 31.144531 386.382812 29.804688 381.960938 C 28.464844 377.539062 27.230469 373.089844 26.109375 368.605469 C 24.984375 364.125 23.972656 359.617188 23.074219 355.085938 C 22.171875 350.550781 21.382812 346 20.703125 341.429688 C 20.023438 336.859375 19.460938 332.273438 19.007812 327.675781 C 18.554688 323.078125 18.214844 318.46875 17.988281 313.855469 C 17.761719 309.238281 17.648438 304.621094 17.648438 300 C 17.648438 295.378906 17.761719 290.761719 17.988281 286.144531 C 18.214844 281.53125 18.554688 276.921875 19.007812 272.324219 C 19.460938 267.726562 20.023438 263.140625 20.703125 258.570312 C 21.382812 254 22.171875 249.449219 23.074219 244.914062 C 23.972656 240.382812 24.984375 235.875 26.109375 231.394531 C 27.230469 226.910156 28.464844 222.460938 29.804688 218.039062 C 31.144531 213.617188 32.59375 209.230469 34.152344 204.878906 C 35.710938 200.527344 37.371094 196.21875 39.140625 191.949219 C 40.910156 187.679688 42.78125 183.457031 44.757812 179.277344 C 46.730469 175.101562 48.808594 170.976562 50.988281 166.898438 C 53.164062 162.824219 55.441406 158.804688 57.816406 154.839844 C 60.195312 150.878906 62.664062 146.976562 65.230469 143.132812 C 67.800781 139.289062 70.460938 135.515625 73.210938 131.800781 C 75.964844 128.089844 78.808594 124.449219 81.738281 120.878906 C 84.667969 117.304688 87.6875 113.808594 90.789062 110.382812 C 93.894531 106.960938 97.078125 103.613281 100.347656 100.347656 C 103.613281 97.078125 106.960938 93.894531 110.382812 90.789062 C 113.808594 87.6875 117.304688 84.667969 120.878906 81.738281 C 124.449219 78.808594 128.089844 75.964844 131.800781 73.210938 C 135.515625 70.460938 139.289062 67.800781 143.132812 65.230469 C 146.976562 62.664062 150.878906 60.195312 154.839844 57.816406 C 158.804688 55.441406 162.824219 53.164062 166.898438 50.988281 C 170.976562 48.808594 175.101562 46.730469 179.277344 44.757812 C 183.457031 42.78125 187.679688 40.910156 191.949219 39.140625 C 196.21875 37.371094 200.527344 35.710938 204.878906 34.152344 C 209.230469 32.59375 213.617188 31.144531 218.039062 29.804688 C 222.460938 28.464844 226.910156 27.230469 231.394531 26.109375 C 235.875 24.984375 240.382812 23.972656 244.914062 23.074219 C 249.449219 22.171875 254 21.382812 258.570312 20.703125 C 263.140625 20.023438 267.726562 19.460938 272.324219 19.007812 C 276.921875 18.554688 281.53125 18.214844 286.144531 17.988281 C 290.761719 17.761719 295.378906 17.648438 300 17.648438 C 304.621094 17.648438 309.238281 17.761719 313.855469 17.988281 C 318.46875 18.214844 323.078125 18.554688 327.675781 19.007812 C 332.273438 19.460938 336.859375 20.023438 341.429688 20.703125 C 346 21.382812 350.550781 22.171875 355.085938 23.074219 C 359.617188 23.972656 364.125 24.984375 368.605469 26.109375 C 373.089844 27.230469 377.539062 28.464844 381.960938 29.804688 C 386.382812 31.144531 390.769531 32.59375 395.121094 34.152344 C 399.472656 35.710938 403.78125 37.371094 408.050781 39.140625 C 412.320312 40.910156 416.542969 42.78125 420.722656 44.757812 C 424.898438 46.730469 429.023438 48.808594 433.101562 50.988281 C 437.175781 53.164062 441.195312 55.441406 445.160156 57.816406 C 449.121094 60.195312 453.023438 62.664062 456.867188 65.230469 C 460.707031 67.800781 464.484375 70.460938 468.199219 73.210938 C 471.910156 75.964844 475.550781 78.808594 479.121094 81.738281 C 482.695312 84.667969 486.191406 87.6875 489.617188 90.789062 C 493.039062 93.894531 496.386719 97.078125 499.652344 100.347656 C 502.921875 103.613281 506.105469 106.960938 509.210938 110.382812 C 512.3125 113.808594 515.332031 117.304688 518.261719 120.878906 C 521.191406 124.449219 524.035156 128.089844 526.789062 131.800781 C 529.539062 135.515625 532.199219 139.289062 534.769531 143.132812 C 537.335938 146.976562 539.804688 150.878906 542.183594 154.839844 C 544.558594 158.804688 546.835938 162.824219 549.011719 166.898438 C 551.191406 170.976562 553.269531 175.101562 555.242188 179.277344 C 557.21875 183.457031 559.089844 187.679688 560.859375 191.949219 C 562.628906 196.21875 564.289062 200.527344 565.847656 204.878906 C 567.40625 209.230469 568.851562 213.617188 570.195312 218.039062 C 571.535156 222.460938 572.769531 226.910156 573.890625 231.394531 C 575.015625 235.875 576.027344 240.382812 576.925781 244.914062 C 577.828125 249.449219 578.617188 254 579.296875 258.570312 C 579.976562 263.140625 580.539062 267.726562 580.992188 272.324219 C 581.445312 276.921875 581.785156 281.53125 582.011719 286.144531 C 582.238281 290.761719 582.351562 295.378906 582.351562 300 Z M 582.351562 300 " fill-opacity="1" fill-rule="nonzero"/><path fill="#00e1f7" d="M 158.824219 441.175781 C 158.824219 363.210938 222.035156 300 300 300 C 377.964844 300 441.175781 363.210938 441.175781 441.175781 C 408.660156 441.175781 187.96875 441.175781 158.824219 441.175781 Z M 158.824219 441.175781 " fill-opacity="1" fill-rule="nonzero"/><path fill="#0e5384" d="M 370.589844 229.410156 C 370.589844 230.566406 370.558594 231.722656 370.503906 232.875 C 370.445312 234.027344 370.363281 235.179688 370.25 236.332031 C 370.136719 237.480469 369.992188 238.625 369.824219 239.769531 C 369.65625 240.910156 369.457031 242.050781 369.230469 243.183594 C 369.007812 244.316406 368.753906 245.441406 368.472656 246.5625 C 368.191406 247.683594 367.882812 248.796875 367.546875 249.902344 C 367.214844 251.007812 366.851562 252.105469 366.460938 253.191406 C 366.074219 254.28125 365.65625 255.355469 365.214844 256.425781 C 364.773438 257.492188 364.304688 258.546875 363.8125 259.59375 C 363.316406 260.636719 362.796875 261.667969 362.253906 262.6875 C 361.707031 263.707031 361.140625 264.710938 360.546875 265.703125 C 359.953125 266.691406 359.332031 267.667969 358.691406 268.628906 C 358.050781 269.589844 357.386719 270.535156 356.695312 271.460938 C 356.007812 272.390625 355.296875 273.300781 354.566406 274.191406 C 353.832031 275.085938 353.078125 275.960938 352.300781 276.816406 C 351.527344 277.671875 350.730469 278.507812 349.914062 279.324219 C 349.097656 280.140625 348.261719 280.9375 347.402344 281.714844 C 346.546875 282.488281 345.671875 283.246094 344.78125 283.976562 C 343.886719 284.710938 342.976562 285.421875 342.050781 286.109375 C 341.121094 286.796875 340.175781 287.460938 339.214844 288.105469 C 338.257812 288.746094 337.28125 289.363281 336.289062 289.957031 C 335.296875 290.550781 334.292969 291.121094 333.273438 291.664062 C 332.257812 292.210938 331.226562 292.730469 330.179688 293.222656 C 329.136719 293.714844 328.082031 294.183594 327.011719 294.625 C 325.945312 295.070312 324.867188 295.484375 323.78125 295.875 C 322.691406 296.261719 321.597656 296.625 320.492188 296.960938 C 319.386719 297.296875 318.273438 297.605469 317.152344 297.882812 C 316.03125 298.164062 314.902344 298.417969 313.769531 298.644531 C 312.636719 298.867188 311.5 299.066406 310.355469 299.234375 C 309.214844 299.40625 308.070312 299.546875 306.917969 299.660156 C 305.769531 299.773438 304.617188 299.859375 303.464844 299.914062 C 302.308594 299.972656 301.15625 300 300 300 C 298.84375 300 297.691406 299.972656 296.535156 299.914062 C 295.382812 299.859375 294.230469 299.773438 293.082031 299.660156 C 291.929688 299.546875 290.785156 299.40625 289.640625 299.234375 C 288.5 299.066406 287.363281 298.867188 286.230469 298.644531 C 285.097656 298.417969 283.96875 298.164062 282.847656 297.882812 C 281.726562 297.605469 280.613281 297.296875 279.507812 296.960938 C 278.402344 296.625 277.308594 296.261719 276.21875 295.875 C 275.132812 295.484375 274.054688 295.070312 272.988281 294.625 C 271.917969 294.183594 270.863281 293.714844 269.820312 293.222656 C 268.773438 292.730469 267.742188 292.210938 266.726562 291.664062 C 265.707031 291.121094 264.703125 290.550781 263.710938 289.957031 C 262.71875 289.363281 261.742188 288.746094 260.785156 288.105469 C 259.824219 287.460938 258.878906 286.796875 257.949219 286.109375 C 257.023438 285.421875 256.113281 284.710938 255.21875 283.976562 C 254.328125 283.246094 253.453125 282.488281 252.597656 281.714844 C 251.738281 280.9375 250.902344 280.140625 250.085938 279.324219 C 249.269531 278.507812 248.472656 277.671875 247.699219 276.816406 C 246.921875 275.960938 246.167969 275.085938 245.433594 274.191406 C 244.703125 273.300781 243.992188 272.390625 243.304688 271.460938 C 242.613281 270.535156 241.949219 269.589844 241.308594 268.628906 C 240.667969 267.667969 240.046875 266.691406 239.453125 265.703125 C 238.859375 264.710938 238.292969 263.707031 237.746094 262.6875 C 237.203125 261.667969 236.683594 260.636719 236.1875 259.59375 C 235.695312 258.546875 235.226562 257.492188 234.785156 256.425781 C 234.34375 255.355469 233.925781 254.28125 233.539062 253.191406 C 233.148438 252.105469 232.785156 251.007812 232.453125 249.902344 C 232.117188 248.796875 231.808594 247.683594 231.527344 246.5625 C 231.246094 245.441406 230.992188 244.316406 230.769531 243.183594 C 230.542969 242.050781 230.34375 240.910156 230.175781 239.769531 C 230.007812 238.625 229.863281 237.480469 229.75 236.332031 C 229.636719 235.179688 229.554688 234.027344 229.496094 232.875 C 229.441406 231.722656 229.410156 230.566406 229.410156 229.410156 C 229.410156 228.257812 229.441406 227.101562 229.496094 225.949219 C 229.554688 224.792969 229.636719 223.644531 229.75 222.492188 C 229.863281 221.34375 230.007812 220.195312 230.175781 219.054688 C 230.34375 217.910156 230.542969 216.773438 230.769531 215.640625 C 230.992188 214.507812 231.246094 213.378906 231.527344 212.261719 C 231.808594 211.140625 232.117188 210.027344 232.453125 208.921875 C 232.785156 207.816406 233.148438 206.71875 233.539062 205.632812 C 233.925781 204.542969 234.34375 203.464844 234.785156 202.398438 C 235.226562 201.332031 235.695312 200.277344 236.1875 199.230469 C 236.683594 198.1875 237.203125 197.15625 237.746094 196.136719 C 238.292969 195.117188 238.859375 194.113281 239.453125 193.121094 C 240.046875 192.132812 240.667969 191.15625 241.308594 190.195312 C 241.949219 189.234375 242.613281 188.289062 243.304688 187.363281 C 243.992188 186.433594 244.703125 185.523438 245.433594 184.632812 C 246.167969 183.738281 246.921875 182.863281 247.699219 182.007812 C 248.472656 181.152344 249.269531 180.316406 250.085938 179.5 C 250.902344 178.679688 251.738281 177.886719 252.597656 177.109375 C 253.453125 176.332031 254.328125 175.578125 255.21875 174.847656 C 256.113281 174.113281 257.023438 173.402344 257.949219 172.714844 C 258.878906 172.027344 259.824219 171.363281 260.785156 170.71875 C 261.742188 170.078125 262.71875 169.460938 263.710938 168.867188 C 264.703125 168.273438 265.707031 167.703125 266.726562 167.160156 C 267.742188 166.613281 268.773438 166.09375 269.820312 165.601562 C 270.863281 165.105469 271.917969 164.640625 272.988281 164.195312 C 274.054688 163.753906 275.132812 163.339844 276.21875 162.949219 C 277.308594 162.5625 278.402344 162.199219 279.507812 161.863281 C 280.613281 161.527344 281.726562 161.21875 282.847656 160.9375 C 283.96875 160.660156 285.097656 160.40625 286.230469 160.179688 C 287.363281 159.953125 288.5 159.757812 289.640625 159.585938 C 290.785156 159.417969 291.929688 159.277344 293.082031 159.164062 C 294.230469 159.050781 295.382812 158.964844 296.535156 158.910156 C 297.691406 158.851562 298.84375 158.824219 300 158.824219 C 301.15625 158.824219 302.308594 158.851562 303.464844 158.910156 C 304.617188 158.964844 305.769531 159.050781 306.917969 159.164062 C 308.070312 159.277344 309.214844 159.417969 310.359375 159.585938 C 311.5 159.757812 312.636719 159.953125 313.769531 160.179688 C 314.902344 160.40625 316.03125 160.660156 317.152344 160.9375 C 318.273438 161.21875 319.386719 161.527344 320.492188 161.863281 C 321.597656 162.199219 322.691406 162.5625 323.78125 162.949219 C 324.867188 163.339844 325.945312 163.753906 327.011719 164.195312 C 328.082031 164.640625 329.136719 165.105469 330.179688 165.601562 C 331.226562 166.09375 332.257812 166.613281 333.273438 167.160156 C 334.292969 167.703125 335.296875 168.273438 336.289062 168.867188 C 337.28125 169.460938 338.257812 170.078125 339.214844 170.71875 C 340.175781 171.363281 341.121094 172.027344 342.050781 172.714844 C 342.976562 173.402344 343.886719 174.113281 344.78125 174.847656 C 345.671875 175.578125 346.546875 176.332031 347.402344 177.109375 C 348.261719 177.886719 349.097656 178.679688 349.914062 179.5 C 350.730469 180.316406 351.527344 181.152344 352.300781 182.007812 C 353.078125 182.863281 353.832031 183.738281 354.566406 184.632812 C 355.296875 185.523438 356.007812 186.433594 356.695312 187.363281 C 357.386719 188.289062 358.050781 189.234375 358.691406 190.195312 C 359.332031 191.15625 359.953125 192.132812 360.546875 193.121094 C 361.140625 194.113281 361.707031 195.117188 362.253906 196.136719 C 362.796875 197.15625 363.316406 198.1875 363.8125 199.230469 C 364.304688 200.277344 364.773438 201.332031 365.214844 202.398438 C 365.65625 203.464844 366.074219 204.542969 366.460938 205.632812 C 366.851562 206.71875 367.214844 207.816406 367.546875 208.921875 C 367.882812 210.027344 368.191406 211.140625 368.472656 212.261719 C 368.753906 213.378906 369.007812 214.507812 369.230469 215.640625 C 369.457031 216.773438 369.65625 217.910156 369.824219 219.054688 C 369.992188 220.195312 370.136719 221.34375 370.25 222.492188 C 370.363281 223.644531 370.445312 224.792969 370.503906 225.949219 C 370.558594 227.101562 370.589844 228.257812 370.589844 229.410156 Z M 370.589844 229.410156 " fill-opacity="1" fill-rule="nonzero"/><path fill="#000000" d="M 300 0 C 134.175781 0 0 134.199219 0 300 C 0 465.824219 134.199219 600 300 600 C 465.824219 600 600 465.800781 600 300 C 600 134.175781 465.800781 0 300 0 Z M 300 564.707031 C 154.042969 564.707031 35.292969 445.957031 35.292969 300 C 35.292969 154.042969 154.042969 35.292969 300 35.292969 C 445.957031 35.292969 564.707031 154.042969 564.707031 300 C 564.707031 445.957031 445.957031 564.707031 300 564.707031 Z M 300 564.707031 " fill-opacity="1" fill-rule="nonzero"/><path fill="#000000" d="M 359.921875 294.101562 C 377.320312 277.972656 388.234375 254.949219 388.234375 229.410156 C 388.234375 180.757812 348.652344 141.175781 300 141.175781 C 251.347656 141.175781 211.765625 180.757812 211.765625 229.410156 C 211.765625 254.949219 222.679688 277.972656 240.078125 294.101562 C 182.121094 317.800781 141.175781 374.792969 141.175781 441.175781 C 141.175781 450.921875 149.078125 458.824219 158.824219 458.824219 L 441.175781 458.824219 C 450.921875 458.824219 458.824219 450.921875 458.824219 441.175781 C 458.824219 374.792969 417.878906 317.800781 359.921875 294.101562 Z M 247.058594 229.410156 C 247.058594 200.21875 270.808594 176.46875 300 176.46875 C 329.191406 176.46875 352.941406 200.21875 352.941406 229.410156 C 352.941406 258.605469 329.191406 282.351562 300 282.351562 C 270.808594 282.351562 247.058594 258.605469 247.058594 229.410156 Z M 370.589844 423.53125 L 370.589844 405.882812 C 370.589844 396.136719 362.6875 388.234375 352.941406 388.234375 C 343.195312 388.234375 335.292969 396.136719 335.292969 405.882812 L 335.292969 423.53125 L 264.707031 423.53125 L 264.707031 405.882812 C 264.707031 396.136719 256.804688 388.234375 247.058594 388.234375 C 237.3125 388.234375 229.410156 396.136719 229.410156 405.882812 L 229.410156 423.53125 L 177.726562 423.53125 C 186.316406 363.746094 237.875 317.648438 300 317.648438 C 362.125 317.648438 413.683594 363.746094 422.273438 423.53125 Z M 370.589844 423.53125 " fill-opacity="1" fill-rule="nonzero"/></svg>